<svg width="21" height="21" viewBox="0 0 21 21" fill="none" xmlns="http://www.w3.org/2000/svg">
<g id="Frame 3065" clip-path="url(#clip0_1273_18456)">
<path id="Vector 924" d="M10.5238 1L11.1382 0.272272C10.784 -0.0266922 10.2661 -0.0273317 9.91125 0.270757L10.5238 1ZM1 9L0.387436 8.27076C0.172012 8.45171 0.047619 8.71866 0.047619 9H1ZM1 20H0.047619C0.047619 20.521 0.466316 20.9454 0.987303 20.9523L1 20ZM8.14286 20.0952L8.13016 21.0475C8.38492 21.0509 8.63043 20.9521 8.81179 20.7731C8.99315 20.5942 9.09524 20.35 9.09524 20.0952H8.14286ZM8.14286 12.4286L7.29102 12.0027L7.19048 12.2037V12.4286H8.14286ZM12.9048 12.4286H13.8571V12.2037L13.7566 12.0027L12.9048 12.4286ZM12.9048 20.0952H11.9524C11.9524 20.35 12.0545 20.5942 12.2359 20.7732C12.4172 20.9521 12.6628 21.051 12.9175 21.0475L12.9048 20.0952ZM20 20L20.0128 20.9523C20.5337 20.9453 20.9524 20.521 20.9524 20H20ZM20 9H20.9524C20.9524 8.71948 20.8287 8.45323 20.6144 8.27227L20 9ZM9.91125 0.270757L0.387436 8.27076L1.61256 9.72924L11.1364 1.72924L9.91125 0.270757ZM0.047619 9V20H1.95238V9H0.047619ZM0.987303 20.9523L8.13016 21.0475L8.15555 19.1429L1.0127 19.0477L0.987303 20.9523ZM9.09524 20.0952V12.4286H7.19048V20.0952H9.09524ZM8.99469 12.8545C8.94358 12.9567 9.23769 12.4286 10.5238 12.4286V10.5238C8.76231 10.5238 7.6596 11.2655 7.29102 12.0027L8.99469 12.8545ZM10.5238 12.4286C10.6741 12.4286 11.0537 12.4304 11.4325 12.5213C11.8495 12.6214 12.0086 12.7659 12.0529 12.8545L13.7566 12.0027C13.3247 11.1389 12.4521 10.8072 11.877 10.6692C11.2638 10.522 10.691 10.5238 10.5238 10.5238V12.4286ZM11.9524 12.4286V20.0952H13.8571V12.4286H11.9524ZM12.9175 21.0475L20.0128 20.9523L19.9872 19.0477L12.892 19.1429L12.9175 21.0475ZM20.9524 20V9H19.0476V20H20.9524ZM20.6144 8.27227L11.1382 0.272272L9.90945 1.72773L19.3856 9.72773L20.6144 8.27227Z" fill="white"/>
</g>
<defs>
<clipPath id="clip0_1273_18456">
<rect width="21" height="21" fill="white"/>
</clipPath>
</defs>
</svg>
