<svg width="21" height="22" viewBox="0 0 21 22" fill="none" xmlns="http://www.w3.org/2000/svg">
<g id="Icon_Search">
<path id="Subtract" fill-rule="evenodd" clip-rule="evenodd" d="M8.4 17.3C13.0392 17.3 16.8 13.5392 16.8 8.9C16.8 4.26081 13.0392 0.5 8.4 0.5C3.76081 0.5 0 4.26081 0 8.9C0 13.5392 3.76081 17.3 8.4 17.3ZM8.39688 15C11.7658 15 14.4969 12.2689 14.4969 8.9C14.4969 5.53106 11.7658 2.8 8.39688 2.8C5.02794 2.8 2.29688 5.53106 2.29688 8.9C2.29688 12.2689 5.02794 15 8.39688 15Z" fill="white"/>
<rect id="Rectangle 1115" x="11.7578" y="14.6133" width="2.4" height="9.82616" rx="1.2" transform="rotate(-45.0056 11.7578 14.6133)" fill="white"/>
</g>
</svg>
