<svg width="31" height="31" viewBox="0 0 31 31" fill="none" xmlns="http://www.w3.org/2000/svg">
<rect width="31" height="31" transform="matrix(0 -1 -1 0 31 31)" fill="#1E1C1C"/>
<rect width="21" height="21" transform="translate(5 5)" fill="#1E1C1C"/>
<path fill-rule="evenodd" clip-rule="evenodd" d="M13.4 21.8C18.0392 21.8 21.8 18.0392 21.8 13.4C21.8 8.76081 18.0392 5 13.4 5C8.76081 5 5 8.76081 5 13.4C5 18.0392 8.76081 21.8 13.4 21.8ZM13.3969 19.5C16.7658 19.5 19.4969 16.7689 19.4969 13.4C19.4969 10.0311 16.7658 7.3 13.3969 7.3C10.0279 7.3 7.29688 10.0311 7.29688 13.4C7.29688 16.7689 10.0279 19.5 13.3969 19.5Z" fill="white"/>
<rect x="16.7578" y="19.1133" width="2.4" height="9.82616" rx="1.2" transform="rotate(-45.0056 16.7578 19.1133)" fill="white"/>
</svg>
