<svg width="102" height="19" viewBox="0 0 102 19" fill="none" xmlns="http://www.w3.org/2000/svg">
<path d="M8.18145 9.611H3.88045V15.102H0.378449V3.083C0.378449 2.79967 0.423783 2.55033 0.514449 2.335C0.616449 2.11967 0.746783 1.93833 0.905449 1.791C1.06412 1.64367 1.25112 1.536 1.46645 1.468C1.68178 1.38867 1.90278 1.349 2.12945 1.349C2.35612 1.349 2.57145 1.38867 2.77545 1.468C2.99078 1.536 3.17778 1.64367 3.33645 1.791C3.50645 1.93833 3.63678 2.11967 3.72745 2.335C3.82945 2.55033 3.88045 2.79967 3.88045 3.083V6.653H8.18145V3.083C8.18145 2.79967 8.22678 2.55033 8.31745 2.335C8.41945 2.11967 8.54978 1.93833 8.70845 1.791C8.86712 1.64367 9.05412 1.536 9.26945 1.468C9.48478 1.38867 9.70578 1.349 9.93245 1.349C10.1591 1.349 10.3744 1.38867 10.5784 1.468C10.7938 1.536 10.9808 1.64367 11.1394 1.791C11.3094 1.93833 11.4398 2.11967 11.5304 2.335C11.6324 2.55033 11.6834 2.79967 11.6834 3.083V15.102H8.18145V9.611ZM19.8509 15.102L19.7149 14.388C19.3862 14.694 19.0009 14.9377 18.5589 15.119C18.1169 15.3003 17.6409 15.391 17.1309 15.391H16.7569C16.4056 15.391 16.0259 15.3343 15.6179 15.221C15.2099 15.119 14.8302 14.9377 14.4789 14.677C14.1389 14.4163 13.8499 14.065 13.6119 13.623C13.3852 13.181 13.2719 12.6257 13.2719 11.957C13.2719 11.311 13.3852 10.7727 13.6119 10.342C13.8386 9.91133 14.1389 9.56567 14.5129 9.305C14.8982 9.04433 15.3402 8.85733 15.8389 8.744C16.3489 8.63067 16.8816 8.574 17.4369 8.574H19.1879C19.1766 8.32467 19.1256 8.12067 19.0349 7.962C18.9556 7.792 18.8422 7.66167 18.6949 7.571C18.5589 7.469 18.3946 7.401 18.2019 7.367C18.0206 7.32167 17.8279 7.299 17.6239 7.299C17.4312 7.299 17.2442 7.316 17.0629 7.35C16.8816 7.384 16.6889 7.42933 16.4849 7.486C16.3489 7.53133 16.2186 7.58233 16.0939 7.639C15.9806 7.69567 15.8446 7.758 15.6859 7.826C15.5272 7.90533 15.3572 7.95067 15.1759 7.962C15.0059 7.962 14.8359 7.93933 14.6659 7.894C14.4959 7.83733 14.3372 7.75233 14.1899 7.639C14.0539 7.52567 13.9462 7.384 13.8669 7.214C13.7082 6.874 13.6856 6.54533 13.7989 6.228C13.9122 5.89933 14.1162 5.62167 14.4109 5.395C14.6376 5.225 14.8926 5.08333 15.1759 4.97C15.4592 4.85667 15.7539 4.766 16.0599 4.698C16.3659 4.61867 16.6719 4.562 16.9779 4.528C17.2952 4.494 17.6012 4.477 17.8959 4.477C18.5079 4.477 19.0916 4.545 19.6469 4.681C20.2136 4.80567 20.7066 5.038 21.1259 5.378C21.5566 5.70667 21.8966 6.16567 22.1459 6.755C22.4066 7.34433 22.5369 8.098 22.5369 9.016V15.102H19.8509ZM19.1879 11.073H17.6409C17.3122 11.073 17.0629 11.1523 16.8929 11.311C16.7229 11.4583 16.6379 11.668 16.6379 11.94C16.6379 12.2233 16.7229 12.433 16.8929 12.569C17.0629 12.705 17.2952 12.773 17.5899 12.773H17.8279C17.9866 12.773 18.1452 12.7503 18.3039 12.705C18.4626 12.6597 18.6042 12.5917 18.7289 12.501C18.8649 12.4103 18.9726 12.297 19.0519 12.161C19.1426 12.025 19.1879 11.8663 19.1879 11.685V11.073ZM24.1835 15.102V6.177C24.1835 5.89367 24.2288 5.65 24.3195 5.446C24.4215 5.23067 24.5518 5.055 24.7105 4.919C24.8692 4.77167 25.0505 4.664 25.2545 4.596C25.4585 4.51667 25.6738 4.477 25.9005 4.477C26.2292 4.477 26.5352 4.55633 26.8185 4.715C27.1132 4.87367 27.3342 5.106 27.4815 5.412C27.8102 5.106 28.1898 4.87367 28.6205 4.715C29.0625 4.55633 29.5102 4.477 29.9635 4.477C30.5075 4.477 31.0118 4.55067 31.4765 4.698C31.9525 4.84533 32.3605 5.10033 32.7005 5.463C33.0518 5.81433 33.3295 6.29033 33.5335 6.891C33.7375 7.49167 33.8395 8.23967 33.8395 9.135V15.102H30.3375V8.931C30.3375 8.64767 30.2922 8.40967 30.2015 8.217C30.1222 8.013 30.0145 7.84867 29.8785 7.724C29.7538 7.59933 29.6122 7.51433 29.4535 7.469C29.2948 7.41233 29.1418 7.384 28.9945 7.384C28.8472 7.384 28.6942 7.41233 28.5355 7.469C28.3768 7.51433 28.2295 7.59933 28.0935 7.724C27.9575 7.84867 27.8442 8.013 27.7535 8.217C27.6742 8.40967 27.6345 8.64767 27.6345 8.931V15.102H24.1835ZM42.5102 15.102L42.3232 13.997C41.9945 14.4277 41.5865 14.7677 41.0992 15.017C40.6232 15.2663 40.0792 15.391 39.4672 15.391C38.9005 15.391 38.3678 15.3117 37.8692 15.153C37.3705 15.0057 36.9285 14.7507 36.5432 14.388C36.1692 14.0253 35.8688 13.5437 35.6422 12.943C35.4268 12.3423 35.3192 11.5943 35.3192 10.699V9.169C35.3192 8.27367 35.4268 7.52567 35.6422 6.925C35.8688 6.32433 36.1692 5.84267 36.5432 5.48C36.9285 5.11733 37.3705 4.86233 37.8692 4.715C38.3678 4.55633 38.9005 4.477 39.4672 4.477C39.9432 4.477 40.3682 4.55067 40.7422 4.698C41.1275 4.834 41.4675 5.02667 41.7622 5.276V2.437C41.7622 2.15367 41.8075 1.91 41.8982 1.706C42.0002 1.49067 42.1305 1.315 42.2892 1.179C42.4478 1.03167 42.6292 0.924 42.8332 0.856C43.0485 0.776666 43.2695 0.736999 43.4962 0.736999C43.7228 0.736999 43.9382 0.776666 44.1422 0.856C44.3462 0.924 44.5275 1.03167 44.6862 1.179C44.8448 1.315 44.9695 1.49067 45.0602 1.706C45.1622 1.91 45.2132 2.15367 45.2132 2.437V15.102H42.5102ZM38.8212 10.937C38.8212 11.2317 38.8665 11.4753 38.9572 11.668C39.0592 11.8607 39.1838 12.0193 39.3312 12.144C39.4785 12.2687 39.6372 12.3593 39.8072 12.416C39.9772 12.4613 40.1358 12.484 40.2832 12.484C40.4305 12.484 40.5835 12.4613 40.7422 12.416C40.9122 12.3593 41.0708 12.2743 41.2182 12.161C41.3655 12.0477 41.4902 11.9003 41.5922 11.719C41.6942 11.5263 41.7508 11.294 41.7622 11.022V8.846C41.7508 8.574 41.6942 8.34733 41.5922 8.166C41.4902 7.97333 41.3655 7.82033 41.2182 7.707C41.0708 7.59367 40.9122 7.51433 40.7422 7.469C40.5835 7.41233 40.4305 7.384 40.2832 7.384C40.1358 7.384 39.9772 7.41233 39.8072 7.469C39.6372 7.51433 39.4785 7.59933 39.3312 7.724C39.1838 7.84867 39.0592 8.013 38.9572 8.217C38.8665 8.40967 38.8212 8.64767 38.8212 8.931V10.937ZM50.5474 11.056V15.102H47.0454V4.103C47.0454 3.61567 47.0851 3.202 47.1644 2.862C47.2551 2.522 47.4024 2.24433 47.6064 2.029C47.8104 1.81367 48.0824 1.66067 48.4224 1.57C48.7624 1.468 49.1874 1.417 49.6974 1.417H52.6554C53.3921 1.417 54.0721 1.51333 54.6954 1.706C55.3188 1.88733 55.8571 2.17067 56.3104 2.556C56.7638 2.93 57.1151 3.41167 57.3644 4.001C57.6251 4.59033 57.7554 5.28733 57.7554 6.092V6.381C57.7554 7.18567 57.6251 7.88267 57.3644 8.472C57.1151 9.06133 56.7638 9.54867 56.3104 9.934C55.8571 10.308 55.3188 10.5913 54.6954 10.784C54.0721 10.9653 53.3921 11.056 52.6554 11.056H50.5474ZM50.5474 8.098H52.4854C52.7688 8.098 53.0181 8.05267 53.2334 7.962C53.4601 7.86 53.6471 7.724 53.7944 7.554C53.9531 7.384 54.0721 7.19133 54.1514 6.976C54.2308 6.76067 54.2704 6.534 54.2704 6.296V6.177C54.2704 5.939 54.2308 5.71233 54.1514 5.497C54.0721 5.28167 53.9531 5.089 53.7944 4.919C53.6471 4.749 53.4601 4.61867 53.2334 4.528C53.0181 4.426 52.7688 4.375 52.4854 4.375H51.0404C50.8478 4.375 50.7174 4.409 50.6494 4.477C50.5814 4.53367 50.5474 4.664 50.5474 4.868V8.098ZM65.1992 15.085C64.6779 16.2863 63.9752 17.1363 63.0912 17.635C62.2185 18.1337 61.1872 18.298 59.9972 18.128C59.7479 18.094 59.5325 18.0203 59.3512 17.907C59.1699 17.805 59.0169 17.6747 58.8922 17.516C58.7789 17.3573 58.6995 17.1873 58.6542 17.006C58.6089 16.8247 58.5975 16.6377 58.6202 16.445C58.6769 16.0597 58.8412 15.7367 59.1132 15.476C59.3965 15.2267 59.7932 15.1473 60.3032 15.238C60.6545 15.306 60.9889 15.289 61.3062 15.187C61.6235 15.085 61.8502 14.9037 61.9862 14.643V14.626L58.5182 6.908C58.4049 6.65867 58.3482 6.415 58.3482 6.177C58.3595 5.939 58.4105 5.718 58.5012 5.514C58.5919 5.31 58.7165 5.13433 58.8752 4.987C59.0452 4.82833 59.2435 4.70933 59.4702 4.63C59.6855 4.55067 59.9122 4.50533 60.1502 4.494C60.3882 4.48267 60.6092 4.51667 60.8132 4.596C61.0285 4.664 61.2212 4.783 61.3912 4.953C61.5612 5.11167 61.6972 5.327 61.7992 5.599L63.7542 10.886L65.5562 5.599C65.6469 5.327 65.7772 5.11167 65.9472 4.953C66.1172 4.783 66.3042 4.664 66.5082 4.596C66.7235 4.51667 66.9445 4.48267 67.1712 4.494C67.3979 4.50533 67.6245 4.55067 67.8512 4.63C68.0665 4.70933 68.2535 4.82833 68.4122 4.987C68.5822 5.13433 68.7069 5.31 68.7862 5.514C68.8769 5.718 68.9222 5.939 68.9222 6.177C68.9222 6.415 68.8712 6.65867 68.7692 6.908L65.1992 15.085ZM74.971 15.391C74.359 15.391 73.7413 15.3117 73.118 15.153C72.4947 14.9943 71.928 14.7337 71.418 14.371C70.9193 14.0083 70.5113 13.5267 70.194 12.926C69.888 12.314 69.735 11.566 69.735 10.682V9.186C69.735 8.27933 69.8823 7.52567 70.177 6.925C70.483 6.32433 70.8683 5.84267 71.333 5.48C71.809 5.11733 72.3303 4.86233 72.897 4.715C73.475 4.55633 74.036 4.477 74.58 4.477C75.1693 4.477 75.7417 4.55067 76.297 4.698C76.8637 4.834 77.368 5.10033 77.81 5.497C78.252 5.89367 78.6033 6.449 78.864 7.163C79.136 7.86567 79.272 8.778 79.272 9.9C79.272 10.0473 79.2607 10.223 79.238 10.427C79.2267 10.631 79.2097 10.8067 79.187 10.954H73.101V10.971C73.101 11.2657 73.1633 11.5093 73.288 11.702C73.4127 11.8947 73.5713 12.0533 73.764 12.178C73.9567 12.3027 74.1663 12.3933 74.393 12.45C74.6197 12.4953 74.835 12.518 75.039 12.518C75.4583 12.518 75.7813 12.501 76.008 12.467C76.2347 12.433 76.4613 12.3763 76.688 12.297C76.8127 12.2517 76.9373 12.2063 77.062 12.161C77.198 12.1043 77.3397 12.0647 77.487 12.042C77.7817 12.008 78.048 12.042 78.286 12.144C78.5353 12.246 78.7167 12.4273 78.83 12.688C79.0113 13.1073 79.0113 13.4927 78.83 13.844C78.66 14.184 78.371 14.473 77.963 14.711C77.827 14.7903 77.6513 14.8697 77.436 14.949C77.232 15.0283 76.994 15.102 76.722 15.17C76.4613 15.238 76.178 15.289 75.872 15.323C75.5773 15.3683 75.277 15.391 74.971 15.391ZM74.597 7.231C74.4043 7.231 74.2173 7.25933 74.036 7.316C73.866 7.36133 73.713 7.44633 73.577 7.571C73.441 7.68433 73.3277 7.83733 73.237 8.03C73.1463 8.21133 73.101 8.44367 73.101 8.727H75.974C75.9853 8.44367 75.9513 8.21133 75.872 8.03C75.804 7.83733 75.7077 7.68433 75.583 7.571C75.4583 7.44633 75.3053 7.36133 75.124 7.316C74.954 7.25933 74.7783 7.231 74.597 7.231ZM80.6588 9.152C80.6588 8.234 80.8062 7.47467 81.1008 6.874C81.3955 6.27333 81.7808 5.79167 82.2568 5.429C82.7328 5.06633 83.2598 4.81133 83.8378 4.664C84.4272 4.51667 85.0108 4.443 85.5888 4.443C86.1555 4.443 86.7278 4.51667 87.3058 4.664C87.8952 4.81133 88.4278 5.06633 88.9038 5.429C89.3798 5.79167 89.7652 6.27333 90.0598 6.874C90.3658 7.47467 90.5188 8.234 90.5188 9.152V10.716C90.5188 11.634 90.3658 12.3933 90.0598 12.994C89.7652 13.5947 89.3798 14.0763 88.9038 14.439C88.4278 14.8017 87.8952 15.0567 87.3058 15.204C86.7278 15.3513 86.1555 15.425 85.5888 15.425C85.0222 15.425 84.4442 15.3513 83.8548 15.204C83.2768 15.0567 82.7498 14.8017 82.2738 14.439C81.7978 14.0763 81.4068 13.5947 81.1008 12.994C80.8062 12.3933 80.6588 11.634 80.6588 10.716V9.152ZM87.1018 8.999C87.1018 8.693 87.0565 8.438 86.9658 8.234C86.8752 8.01867 86.7562 7.843 86.6088 7.707C86.4728 7.571 86.3142 7.47467 86.1328 7.418C85.9515 7.35 85.7702 7.316 85.5888 7.316C85.4075 7.316 85.2262 7.35 85.0448 7.418C84.8635 7.47467 84.6992 7.571 84.5518 7.707C84.4158 7.843 84.3025 8.01867 84.2118 8.234C84.1212 8.438 84.0758 8.693 84.0758 8.999V10.869C84.0758 11.175 84.1212 11.4357 84.2118 11.651C84.3025 11.855 84.4158 12.025 84.5518 12.161C84.6992 12.297 84.8635 12.399 85.0448 12.467C85.2262 12.5237 85.4075 12.552 85.5888 12.552C85.7702 12.552 85.9515 12.5237 86.1328 12.467C86.3142 12.399 86.4728 12.297 86.6088 12.161C86.7562 12.025 86.8752 11.855 86.9658 11.651C87.0565 11.4357 87.1018 11.175 87.1018 10.869V8.999ZM92.0839 15.102V6.177C92.0839 5.89367 92.1292 5.65 92.2199 5.446C92.3219 5.23067 92.4522 5.055 92.6109 4.919C92.7696 4.77167 92.9509 4.664 93.1549 4.596C93.3589 4.51667 93.5742 4.477 93.8009 4.477C94.1296 4.477 94.4356 4.55633 94.7189 4.715C95.0136 4.87367 95.2346 5.106 95.3819 5.412C95.7106 5.106 96.0902 4.87367 96.5209 4.715C96.9629 4.55633 97.4106 4.477 97.8639 4.477C98.4079 4.477 98.9122 4.55067 99.3769 4.698C99.8529 4.84533 100.261 5.10033 100.601 5.463C100.952 5.81433 101.23 6.29033 101.434 6.891C101.638 7.49167 101.74 8.23967 101.74 9.135V15.102H98.2379V8.931C98.2379 8.64767 98.1926 8.40967 98.1019 8.217C98.0226 8.013 97.9149 7.84867 97.7789 7.724C97.6542 7.59933 97.5126 7.51433 97.3539 7.469C97.1952 7.41233 97.0422 7.384 96.8949 7.384C96.7476 7.384 96.5946 7.41233 96.4359 7.469C96.2772 7.51433 96.1299 7.59933 95.9939 7.724C95.8579 7.84867 95.7446 8.013 95.6539 8.217C95.5746 8.40967 95.5349 8.64767 95.5349 8.931V15.102H92.0839Z" fill="white"/>
</svg>
